<svg width="200" height="100" viewBox="0 0 200 100" xmlns="http://www.w3.org/2000/svg">
<rect x="10" y="10" width="180" height="80" rx="12" fill="#5FA8E8"/>
<rect x="24" y="24" width="18" height="14" rx="3" fill="#FFFFFF"/><rect x="48" y="24" width="18" height="14" rx="3" fill="#FFFFFF"/><rect x="72" y="24" width="18" height="14" rx="3" fill="#FFFFFF"/><rect x="96" y="24" width="18" height="14" rx="3" fill="#FFFFFF"/><rect x="120" y="24" width="18" height="14" rx="3" fill="#FFFFFF"/><rect x="144" y="24" width="18" height="14" rx="3" fill="#FFFFFF"/><rect x="168" y="24" width="10" height="14" rx="3" fill="#FFFFFF"/>
<rect x="24" y="44" width="18" height="14" rx="3" fill="#FFFFFF"/><rect x="48" y="44" width="18" height="14" rx="3" fill="#FFFFFF"/><rect x="72" y="44" width="18" height="14" rx="3" fill="#FFFFFF"/><rect x="96" y="44" width="18" height="14" rx="3" fill="#FFFFFF"/><rect x="120" y="44" width="18" height="14" rx="3" fill="#FFFFFF"/><rect x="144" y="44" width="18" height="14" rx="3" fill="#FFFFFF"/><rect x="168" y="44" width="10" height="14" rx="3" fill="#FFFFFF"/>
<rect x="45" y="64" width="110" height="14" rx="4" fill="#FFFFFF"/>
</svg>